# xmcd CD database file
#
# Track frame offsets:
#	150
#	13730
#	25822
#	37025
#	46907
#	59837
#	70597
#	83337
#	94115
#	107575
#
# Disc length: 1605 seconds
#
# Revision: 0
# Processed by: cddbd v1.4PL0 Copyright (c) Steve Scherf et al.
# Submitted via: CDex 1.40Beta9
#
DISCID=7706430a
DTITLE=Stonewall Jackson - Greatest Hits
DYEAR=1900
DGENRE=Country
TTITLE0=Don't Be Angry
TTITLE1=A Wound Time Can't Erase
TTITLE2=Waterloo
TTITLE3=Shake 'Em Up, Roll 'Em
TTITLE4=Love Gets All Over Me
TTITLE5=Lovin' The Fool Out Of Me
TTITLE6=I Washed My Hand In Muddy Water
TTITLE7=Why I'm Walkin'
TTITLE8=B.J. The D.J.
TTITLE9=Herman Schwartz
EXTD=ID3G: 2
EXTT0=
EXTT1=
EXTT2=
EXTT3=
EXTT4=
EXTT5=
EXTT6=
EXTT7=
EXTT8=
EXTT9=
PLAYORDER=
